<?xml version="1.0" encoding="UTF-8" standalone="no"?>
<!-- Created with Inkscape (http://www.inkscape.org/) -->

<svg version="1.1" id="svg2" width="100.52" height="150.4" viewBox="350 280 430 167.4"
    sodipodi:docname="SkullCreamMAIN.ai" xmlns:inkscape="http://www.inkscape.org/namespaces/inkscape"
    xmlns:sodipodi="http://sodipodi.sourceforge.net/DTD/sodipodi-0.dtd" xmlns="http://www.w3.org/2000/svg"
    xmlns:svg="http://www.w3.org/2000/svg">
    <defs id="defs6">
        <clipPath clipPathUnits="userSpaceOnUse" id="clipPath24">
            <path d="M 0,1190.55 H 841.89 V 0 H 0 Z" id="path22" />
        </clipPath>
        <clipPath clipPathUnits="userSpaceOnUse" id="clipPath80">
            <path d="M 0,1190.55 H 841.89 V 0 H 0 Z" id="path78" />
        </clipPath>
    </defs>
    <sodipodi:namedview id="namedview4" pagecolor="#ffffff" bordercolor="#000000" borderopacity="0.25"
        inkscape:showpageshadow="2" inkscape:pageopacity="0.0" inkscape:pagecheckerboard="0"
        inkscape:deskcolor="#d1d1d1" />
    <g id="g8" inkscape:groupmode="layer" inkscape:label="SkullCreamMAIN"
        transform="matrix(1.3333333,0,0,-1.3333333,0,1587.4)">
        <g id="g74">
            <g id="g76" clip-path="url(#clipPath80)">
                <g id="g82" transform="translate(423.876,994.3726)">
                    <path
                        d="m 0,0 c 75.151,0 136.099,-60.946 136.099,-136.098 0,-75.152 -60.948,-136.098 -136.099,-136.098 -75.151,0 -136.098,60.946 -136.098,136.098 C -136.098,-60.946 -75.151,0 0,0 m 0,25.5 c 87.22,0 157.948,-70.731 157.948,-157.944 0,-87.22 -70.728,-157.951 -157.948,-157.951 -87.216,0 -157.947,70.731 -157.947,157.951 C -157.947,-45.231 -87.216,25.5 0,25.5"
                        style="fill:#3d3d3c;fill-opacity:1;fill-rule:evenodd;stroke:none" id="path84" />
                </g>
                <g id="g86" transform="translate(423.8584,783.2271)">
                    <path
                        d="m 0,0 c -21.739,0.057 -43.474,2.37 -60.547,6.898 l 36.994,-77.403 c 5.694,-11.917 9.561,-19.066 23.553,-19.066 13.995,0 17.862,7.149 23.556,19.066 L 60.55,6.898 C 43.478,2.37 21.743,0.057 0,0 m -83.72,52.011 2.786,-18.438 C -78.406,16.878 -39.076,6.552 0,6.445 39.079,6.552 78.409,16.878 80.935,33.573 l 2.783,18.394 C 25.827,38.805 -29.986,38.817 -83.72,52.011"
                        style="fill:#ffd779;fill-opacity:1;fill-rule:evenodd;stroke:none" id="path88" />
                </g>
                <g id="g90" transform="translate(494.877,829.3325)">
                    <path
                        d="m 0,0 c -23.48,-8.04 -51.906,-14.523 -70.967,-14.81 -21.311,0.287 -54.298,8.383 -79.033,17.703 l 2.631,-15.674 c 2.635,-15.712 39.486,-23.767 76.351,-23.865 14.7,0.042 29.393,1.343 41.918,3.893 8.377,2.282 24.83,7.314 26.649,18.149 z m -66.668,-132.659 c -13.919,-1.415 -10.973,57.004 -10.16,69.932 -10.89,-5.074 -21.427,-8.832 -35.916,-11.416 17.098,6.449 33.336,15.123 48.445,25.383 0.445,0.302 0.897,0.604 1.352,0.9 -5.305,-0.378 -9.977,-0.595 -13.258,-0.529 -18.749,0.38 -37.185,2.54 -51.933,6.451 l 34.898,-73.022 c 5.373,-11.244 9.022,-17.988 22.222,-17.988 1.582,0 3.026,0.097 4.35,0.289"
                        style="fill:#f9be49;fill-opacity:1;fill-rule:evenodd;stroke:none" id="path92" />
                </g>
                <g id="g94" transform="translate(473.627,785.6519)">
                    <path
                        d="m 0,0 -8.107,-16.963 c -21.317,-16.872 -45.157,-30.772 -70.939,-39.541 22.536,6.43 45.665,14.416 65.212,27.559 l -19.035,-39.827 c -10.635,-5.331 -21.695,-9.823 -33.065,-13.323 10.121,1.862 20.325,3.815 30.094,7.103 -2.219,-4.732 -4.664,-10.058 -8.439,-13.8 8.884,1.721 12.195,8.012 16.734,17.514 L 7.354,1.741 C 4.992,1.116 2.537,0.534 0,0"
                        style="fill:#ffe8b8;fill-opacity:1;fill-rule:evenodd;stroke:none" id="path96" />
                </g>
                <g id="g98" transform="translate(377.4048,765.0894)">
                    <path
                        d="m 0,0 c 11.703,4.339 22.981,9.771 33.734,16.104 -16.105,0.742 -31.63,2.817 -44.396,6.201 z M 53.791,15.903 C 38.507,5.464 22.06,-3.364 4.729,-9.898 l 7.697,-16.111 c 28.762,9.571 54.8,25.719 77.708,45.396 C 78.919,17.418 66.455,16.255 53.791,15.903 M 24.757,-51.81 c 19.796,5.83 38.614,14.822 55.875,26.103 L 98.941,12.595 C 74.9,-8.364 47.477,-25.632 17.177,-35.944 l 7.058,-14.772 z m 47.323,8.206 c -13.274,-7.375 -27.27,-13.463 -41.792,-17.927 3.518,-4.604 8.027,-7.176 16.17,-7.176 13.204,0 16.85,6.748 22.223,17.991 z m 69.589,127.641 -6.816,-40.61 C 133.82,37.265 128.242,32.12 119.654,28.008 L 75.699,-63.965 c -7.071,-14.797 -11.871,-23.67 -29.241,-23.67 -17.368,0 -22.169,8.873 -29.24,23.67 l -43.956,91.973 c -8.583,4.112 -14.164,9.257 -15.199,15.419 l -6.801,40.503 c 4.912,-2.792 9.81,-5.37 14.693,-7.741 l 4.15,-24.726 C -27.257,35.749 9.593,27.693 46.458,27.6 c 36.866,0.093 73.719,8.155 76.354,23.863 l 4.074,24.267 c 4.944,2.522 9.873,5.294 14.783,8.307"
                        style="fill:#3d3d3c;fill-opacity:1;fill-rule:evenodd;stroke:none" id="path100" />
                </g>
                <g id="g102" transform="translate(511.1914,783.2017)">
                    <path
                        d="m 0,0 c -5.508,-6.26 -11.035,-12.913 -12.869,-21.283 -1.777,-8.134 1.381,-15.863 12.869,-16.198 11.488,0.335 14.646,8.064 12.869,16.198 C 11.035,-12.913 5.508,-6.26 0,0 m -161.648,-36.535 c -1.834,8.369 -7.359,15.019 -12.868,21.282 -5.51,-6.263 -11.034,-12.913 -12.869,-21.282 -1.778,-8.134 1.381,-15.865 12.869,-16.199 11.488,0.334 14.646,8.065 12.868,16.199 m -1.351,93.542 c 0.683,-0.265 1.372,-0.531 2.068,-0.796 l -0.495,-6.703 c -0.61,-7.342 6.093,-13.457 13.463,-13.457 6.78,0 12.943,5.103 13.463,11.624 16.908,-4.619 34.332,-7.855 47.17,-8.028 9.271,0.126 20.935,1.849 33.068,4.538 l -0.935,-12.687 c -0.612,-7.342 6.092,-13.457 13.461,-13.457 7.402,0 14.074,6.087 13.461,13.457 l -1.418,19.233 c 5.847,1.817 11.498,3.767 16.718,5.77 1.684,-5.267 7.116,-9.122 12.967,-9.122 9.352,0 13.809,6.892 13.301,15.611 l -0.484,6.757 c 5.046,4.823 6.711,13.259 5.513,20.786 14.065,15.84 22.047,39.082 21.387,72.86 -1.566,80.456 -64.027,121.648 -127.037,123.075 -63.009,-1.427 -125.471,-42.619 -127.037,-123.075 -0.661,-33.775 7.322,-57.017 21.384,-72.857 -1.3,-8.165 0.764,-17.396 6.87,-21.936 l -0.347,-4.726 -1.98,-26.971 c -0.613,-7.341 6.09,-13.457 13.46,-13.457 7.403,0 14.074,6.087 13.46,13.457 l -1.243,16.868 z"
                        style="fill:#f6f6f6;fill-opacity:1;fill-rule:evenodd;stroke:none" id="path104" />
                </g>
                <g id="g106" transform="translate(352.9473,876.0854)">
                    <path
                        d="M 0,0 C 13.721,-2.415 26.98,3.619 34.429,14.359 26.224,5.933 14.133,1.585 1.682,3.779 -14.828,6.69 -26.809,20.204 -28.5,36.076 -29.563,18.789 -17.481,3.081 0,0 m -16.389,-114.517 c -1.267,-1.443 -2.534,-2.921 -3.702,-4.471 -2.167,-2.876 -3.973,-5.992 -4.761,-9.583 -1.861,-8.521 10.845,-10.923 13.56,-4.032 2.017,5.041 -1.805,13.728 -5.097,18.086 m 75.488,134.47 c 13.743,9.549 15.2,31.602 6.525,44.449 -55.132,-5.943 -127.062,32.91 -73.1,96.268 -24.766,-19.535 -41.807,-49.615 -42.597,-90.178 -0.627,-32.165 6.974,-54.3 20.365,-69.386 -1.239,-7.788 0.734,-16.591 6.568,-20.911 l -2.512,-34.347 c 2.805,-9.411 15.095,-6.059 14.811,1.1 -0.255,6.402 0.648,14.366 0.957,20.833 0.087,1.812 0.128,3.503 0.082,5.013 -0.047,-0.057 9.176,-4.054 11.998,-4.896 L 1.342,-43.657 c 1.048,-3.666 4.638,-6.348 8.679,-6.348 6.824,0 7.861,6.795 8.754,12.348 -0.165,-0.334 20.909,-5.952 23.962,-6.094 10.354,-2.15 20.195,-3.503 28.178,-3.609 10.466,0.141 24.132,2.421 37.952,5.835 l -1.334,-18.067 c -0.562,-6.932 15.268,-9.3 14.416,0.843 l -1.674,23.606 c -13.357,-3.225 -26.476,-5.357 -36.607,-5.504 -42.291,1.666 -55.734,38.943 -24.569,60.6"
                        style="fill:#e5e5e5;fill-opacity:1;fill-rule:evenodd;stroke:none" id="path108" />
                </g>
                <g id="g110" transform="translate(416.5625,1058.7178)">
                    <path
                        d="m 0,0 c 20.035,-0.453 40.01,-4.933 57.994,-13.413 -1.92,-0.657 -3.469,-1.764 -4.482,-3.33 -3.772,-5.844 1.373,-15.881 11.49,-22.414 10.121,-6.534 21.387,-7.088 25.166,-1.239 0.773,1.195 1.17,2.569 1.228,4.05 21.006,-20.381 34.913,-49.307 35.641,-86.729 0.104,-5.374 -0.008,-10.483 -0.33,-15.334 1.221,7.91 1.77,16.639 1.584,26.27 C 126.799,-35.513 67.309,3.716 7.301,5.078 -16.873,4.528 -40.964,-2.166 -61.212,-14.976 -42.413,-5.48 -21.236,-0.481 0,0 m 103.207,-295.951 c -1.223,5.578 -4.906,10.015 -8.578,14.187 l -0.117,-0.132 c 3.293,-4.358 7.115,-13.046 5.097,-18.086 -2.716,-6.889 -15.421,-4.489 -13.56,4.031 -1.184,-5.424 0.92,-10.577 8.58,-10.799 7.658,0.222 9.764,5.375 8.578,10.799 m -17.434,82.214 -0.119,-1.582 c -0.406,-4.895 4.063,-8.973 8.977,-8.973 6.234,0 9.205,4.593 8.865,10.407 -0.016,0.223 -0.041,0.597 -0.076,1.076 -0.236,3.279 -0.828,11.579 -0.852,11.555 0.096,-6.132 0.121,-20.293 -9.404,-18.938 -3.344,0.478 -6.682,2.89 -7.391,6.455 m -7.556,31.106 c -13.721,-2.412 -26.979,3.618 -34.428,14.355 8.205,-8.42 20.295,-12.771 32.744,-10.576 16.512,2.911 28.494,16.422 30.186,32.296 1.062,-17.286 -11.02,-32.997 -28.502,-36.075"
                        style="fill:#ffffff;fill-opacity:1;fill-rule:evenodd;stroke:none" id="path112" />
                </g>
                <g id="g114" transform="translate(336.6753,736.7124)">
                    <path
                        d="M 0,0 C 7.659,0.224 9.764,5.38 8.579,10.801 7.356,16.381 3.672,20.814 0,24.99 -3.672,20.814 -7.356,16.381 -8.579,10.801 -9.764,5.38 -7.659,0.224 0,0 M 0,40.446 C 7.043,31.467 15.813,21.069 18.493,9.729 21.222,-1.798 15.935,-12.815 0,-13.052 -15.935,-12.815 -21.222,-1.798 -18.492,9.729 -15.815,21.069 -7.043,31.467 0,40.446 M 193.01,24.98 C 190.331,36.321 181.559,46.72 174.516,55.702 167.473,46.72 158.702,36.321 156.024,24.98 153.295,13.454 158.581,2.437 174.516,2.201 190.452,2.437 195.737,13.454 193.01,24.98 m -9.916,1.073 c 1.188,-5.421 -0.92,-10.574 -8.578,-10.797 -7.658,0.223 -9.766,5.376 -8.58,10.797 1.225,5.581 4.906,10.017 8.58,14.189 3.672,-4.172 7.356,-8.608 8.578,-14.189 M -6.859,119.557 c -5.829,4.317 -7.801,13.118 -6.563,20.906 -13.376,15.076 -20.969,37.201 -20.343,69.353 1.489,76.592 60.916,115.803 120.863,117.164 59.945,-1.361 119.373,-40.572 120.863,-117.164 0.625,-32.158 -6.968,-54.28 -20.349,-69.36 1.137,-7.165 -0.36,-15.11 -5.156,-19.704 0.027,0.025 0.8,-10.882 0.927,-12.63 0.34,-5.813 -2.631,-10.407 -8.865,-10.407 -4.914,0 -9.383,4.074 -8.975,8.97 l 0.344,4.666 c -8.373,-3.663 -17.031,-6.691 -25.771,-9.345 l 1.636,-22.223 c 0.411,-4.914 -4.037,-8.973 -8.972,-8.973 -4.912,0 -9.383,4.078 -8.973,8.973 l 1.334,18.095 c -13.849,-3.431 -27.557,-5.723 -38.046,-5.867 -14.04,0.192 -33.848,4.238 -52.047,9.703 l 0.478,-6.496 c 0.41,-4.914 -4.037,-8.97 -8.973,-8.97 -4.913,0 -9.383,4.074 -8.974,8.97 l 0.888,12.052 -0.009,-0.006 c -4.311,1.603 -8.351,3.254 -11.987,4.904 L 7.683,95.712 8.513,84.465 c 0.408,-4.914 -4.039,-8.97 -8.975,-8.97 -4.913,0 -9.382,4.074 -8.974,8.97 l 1.321,17.981 z M -19.61,109.125 c 0.735,-0.544 1.537,-1.095 2.399,-1.651 l -1.948,-24.835 c -0.849,-10.201 8.461,-18.696 18.697,-18.696 8.28,0 15.899,5.484 18.106,12.966 2.702,-1.408 5.761,-2.213 8.907,-2.213 7.111,0 13.732,4.043 16.861,9.92 15.939,-3.974 31.753,-6.64 43.821,-6.804 7.797,0.104 17.154,1.254 27.098,3.128 l -0.248,-2.987 c -0.848,-10.199 8.46,-18.691 18.695,-18.691 10.283,0 19.547,8.451 18.695,18.691 l -1.01,12.131 c 3.137,0.983 6.219,2.003 9.211,3.043 3.528,-4.229 9.034,-6.964 14.842,-6.964 10.283,0 19.547,8.451 18.695,18.695 l -0.287,3.443 c 0.401,0.276 0.787,0.551 1.155,0.824 6.623,4.901 8.865,14.909 7.459,23.757 15.216,17.145 23.853,42.299 23.138,78.852 -1.695,87.078 -69.271,131.659 -137.441,133.203 -68.167,-1.544 -135.743,-46.125 -137.438,-133.203 -0.715,-36.55 7.92,-61.704 23.135,-78.845 -1.407,-8.852 0.832,-18.857 7.458,-23.764"
                        style="fill:#3d3d3c;fill-opacity:1;fill-rule:evenodd;stroke:none" id="path116" />
                </g>
                <g id="g118" transform="translate(450.6445,908.9429)">
                    <path
                        d="m 0,0 c 3.865,-19.575 22.707,-32.561 42.453,-29.077 19.783,3.49 33.065,22.198 29.93,41.956 3.273,1.264 5.322,4.728 4.691,8.307 -0.717,4.055 -4.896,7.653 -8.703,6.093 C 45.805,18.048 22.418,13.979 -1.949,14.878 -6.076,15.029 -8.76,10.25 -8.043,6.182 -7.373,2.384 -3.842,-0.333 0,0 m -53.563,0 c -3.865,-19.575 -22.708,-32.561 -42.453,-29.077 -19.78,3.49 -33.064,22.198 -29.929,41.956 -3.27,1.264 -5.32,4.728 -4.692,8.307 0.718,4.055 4.896,7.653 8.703,6.093 22.566,-9.231 45.953,-13.3 70.323,-12.401 4.125,0.151 6.81,-4.628 6.09,-8.696 C -46.19,2.384 -49.722,-0.333 -53.563,0 m 26.778,-47.018 c -16.541,-23.028 -26.169,15.533 -10.114,23.664 3.04,1.54 6.577,2.314 10.114,2.314 3.537,0 7.074,-0.774 10.115,-2.314 16.055,-8.131 6.428,-46.692 -10.115,-23.664"
                        style="fill:#3d3d3c;fill-opacity:1;fill-rule:evenodd;stroke:none" id="path120" />
                </g>
            </g>
        </g>
    </g>
</svg>